<svg width="288" height="60" viewBox="0 0 288 60" fill="none" xmlns="http://www.w3.org/2000/svg">
<path d="M42.75 43.3269V42.2308H43.2981V43.3269H42.75ZM42.75 40.0385V39.4904H43.2981V40.0385H42.75ZM44.9423 38.9423V38.3942H45.4904V38.9423H44.9423ZM46.0385 36.75V36.2019H46.5865V36.75H46.0385ZM42.2019 36.75V35.6538H42.75V36.75H42.2019ZM45.4904 35.6538V35.1058H46.0385V35.6538H45.4904ZM13.1538 34.0096V33.4615H14.25V32.9135H15.8942V32.3654H16.9904V31.8173H18.6346V31.2692H19.7308V30.7212H21.375V30.1731H22.4712V29.625H24.1154V29.0769H25.2115V28.5288H24.6635V27.9808H23.5673V27.4327H22.4712V26.8846H21.9231V26.3365H20.8269V25.7885H20.2788V25.2404H19.1827V24.6923H17.5385V24.1442H15.8942V24.6923H15.3462V25.2404H14.7981V26.3365H14.25V27.4327H13.7019V29.0769H13.1538V30.1731H12.6058V31.2692H12.0577V32.3654H11.5096V34.0096H13.1538ZM10.4135 49.3558V48.8077H9.31731V48.2596H8.76923V47.7115H8.22115V47.1635H7.67308V46.6154H7.125V46.0673H6.57692V45.5192H6.02885V44.4231H5.48077V42.7788H3.83654V43.3269H2.74038V43.875H1.64423V43.3269H0.548077V42.7788H0V41.1346H0.548077V40.5865H1.09615V40.0385H1.64423V38.9423H2.74038V38.3942H3.83654V37.8462H4.38462V36.75H4.93269V34.5577H5.48077V32.9135H6.02885V31.2692H6.57692V29.625H7.125V28.5288H7.67308V26.8846H8.22115V25.2404H8.76923V23.5962H9.31731V22.5H9.86538V21.4038H10.4135V20.8558H9.31731V20.3077H8.22115V20.8558H6.02885V20.3077H5.48077V18.1154H6.02885V17.0192H6.57692V15.9231H7.125V15.375H7.67308V14.8269H8.22115V15.9231H8.76923V16.4712H9.31731V15.9231H10.4135V16.4712H11.5096V17.0192H12.6058V16.4712H13.1538V15.375H13.7019V14.2788H14.25V13.7308H15.8942V13.1827H17.5385V13.7308H18.0865V14.8269H18.6346V15.375H19.1827V17.0192H18.6346V17.5673H17.5385V18.1154H16.9904V19.7596H18.0865V20.3077H19.1827V20.8558H20.2788V21.4038H21.375V21.9519H22.4712V22.5H23.5673V23.0481H24.6635V23.5962H25.7596V24.1442H26.8558V24.6923H27.9519V25.2404H29.0481V25.7885H30.1442V26.3365H32.3365V25.7885H33.4327V25.2404H35.0769V24.6923H36.1731V24.1442H37.8173V23.5962H38.9135V23.0481H40.5577V22.5H41.6538V21.9519H43.2981V21.4038H44.3942V20.8558H44.9423V20.3077H47.1346V21.4038H48.7788V22.5H49.3269V23.5962H48.7788V24.6923H48.2308V25.2404H47.6827V25.7885H44.9423V25.2404H42.75V25.7885H41.6538V26.3365H40.5577V26.8846H38.9135V27.4327H37.8173V27.9808H36.7212V28.5288H35.625V29.0769H34.5288V29.625H33.4327V30.1731H32.3365V30.7212H31.2404V31.2692H30.1442V31.8173H29.0481V32.3654H27.9519V32.9135H26.3077V33.4615H24.6635V34.0096H23.0192V34.5577H21.375V35.1058H19.7308V35.6538H18.0865V36.2019H16.4423V36.75H15.8942V37.2981H14.7981V37.8462H13.7019V38.3942H12.6058V38.9423H11.5096V39.4904H10.9615V40.0385H10.4135V41.6827H10.9615V42.7788H11.5096V43.3269H14.25V42.7788H15.3462V42.2308H17.5385V41.6827H19.1827V41.1346H20.2788V40.5865H21.375V40.0385H22.4712V39.4904H23.0192V38.9423H24.1154V38.3942H24.6635V37.8462H25.7596V37.2981H26.8558V36.75H27.9519V36.2019H29.0481V35.6538H30.1442V35.1058H31.2404V34.5577H32.3365V34.0096H33.4327V33.4615H34.5288V32.9135H35.625V32.3654H36.7212V31.8173H37.2692V31.2692H38.9135V30.7212H39.4615V30.1731H40.0096V29.625H40.5577V29.0769H41.1058V28.5288H42.2019V27.9808H44.9423V28.5288H45.4904V29.0769H46.0385V29.625H46.5865V32.9135H46.0385V34.0096H45.4904V35.1058H44.9423V36.2019H45.4904V36.75H44.9423V37.8462H44.3942V40.0385H44.9423V42.2308H44.3942V40.5865H43.8462V37.8462H43.2981V35.6538H42.75V35.1058H41.6538V34.5577H41.1058V35.1058H40.5577V35.6538H40.0096V36.2019H39.4615V36.75H37.8173V37.2981H36.7212V37.8462H35.625V38.3942H35.0769V38.9423H33.9808V39.4904H32.8846V40.0385H31.7885V40.5865H31.2404V41.1346H30.1442V41.6827H29.0481V42.2308H27.9519V42.7788H27.4038V43.3269H26.8558V43.875H25.7596V44.4231H24.6635V44.9712H23.5673V45.5192H22.4712V46.0673H21.375V46.6154H20.2788V47.1635H19.7308V47.7115H18.6346V48.2596H17.5385V48.8077H15.8942V49.3558H10.4135ZM30.3498 56.4808V55.9327H30.8978V56.4808H30.3498ZM29.8017 55.9327V55.3846H30.3498V55.9327H29.8017ZM31.4459 54.8365V54.2885H31.994V54.8365H31.4459ZM27.6094 54.2885V53.7404H27.0613V53.1923H28.1575V54.2885H27.6094ZM74.1959 59.2212V58.6731H73.6478V58.125H73.0998V57.5769H72.0036V57.0288H71.4555V56.4808H70.9075V55.9327H70.3594V55.3846H69.8113V54.8365H68.7151V54.2885H68.1671V53.7404H67.619V53.1923H67.0709V52.6442H66.5228V52.0962H65.4267V51.5481H64.8786V51H64.3305V50.4519H63.7825V49.9038H63.2344V49.3558H62.1382V48.8077H61.5901V48.2596H61.0421V47.7115H60.494V47.1635H59.9459V46.6154H59.3978V46.0673H58.3017V45.5192H57.7536V44.9712H57.2055V44.4231H56.6575V43.875H56.1094V43.3269H55.0132V42.7788H54.4651V42.2308H53.9171V41.6827H53.369V41.1346H52.8209V40.5865H51.7248V40.0385H51.1767V39.4904H50.6286V38.9423H50.0805V38.3942H49.5325V37.8462H47.8882V38.3942H47.3401V38.9423H46.244V39.4904H45.6959V40.0385H44.5998V40.5865H44.0517V41.1346H42.9555V41.6827H42.4075V42.2308H41.3113V42.7788H40.7632V43.3269H39.6671V43.875H39.119V44.4231H38.0228V44.9712H37.4748V45.5192H36.9267V46.0673H35.8305V46.6154H35.2825V47.1635H34.1863V47.7115H33.6382V48.2596H32.5421V51.5481H31.994V53.7404H31.4459V52.0962H30.8978V52.6442H30.3498V54.2885H29.8017V52.6442H29.2536V57.0288H28.7055V52.0962H27.0613V51H26.5132V48.8077H27.0613V48.2596H27.6094V47.7115H28.7055V47.1635H30.3498V46.6154H30.8978V46.0673H31.4459V45.5192H31.994V44.9712H32.5421V44.4231H33.0901V43.875H33.6382V43.3269H34.7344V42.7788H35.2825V42.2308H35.8305V41.6827H36.3786V41.1346H36.9267V40.5865H38.0228V40.0385H38.5709V39.4904H39.119V38.9423H39.6671V38.3942H40.7632V37.8462H41.3113V37.2981H41.8594V36.75H42.4075V36.2019H42.9555V35.6538H44.0517V35.1058H44.5998V34.5577H45.1478V34.0096H45.6959V32.3654H45.1478V31.8173H44.5998V31.2692H44.0517V30.7212H43.5036V30.1731H42.9555V29.625H41.8594V29.0769H41.3113V28.5288H40.7632V27.9808H40.2151V27.4327H39.6671V26.8846H39.119V26.3365H38.5709V25.7885H38.0228V25.2404H34.7344V24.6923H33.6382V24.1442H33.0901V20.8558H33.6382V19.7596H34.1863V19.2115H34.7344V18.6635H35.8305V18.1154H36.3786V17.5673H39.119V18.1154H40.2151V19.2115H40.7632V19.7596H41.3113V20.3077H41.8594V20.8558H42.4075V21.4038H42.9555V21.9519H43.5036V22.5H44.0517V23.0481H44.5998V23.5962H45.1478V24.1442H45.6959V24.6923H46.244V25.2404H46.7921V25.7885H47.3401V26.3365H47.8882V26.8846H48.4363V27.4327H48.9844V27.9808H49.5325V28.5288H50.0805V29.0769H51.1767V29.625H51.7248V29.0769H52.2728V28.5288H52.8209V27.9808H53.9171V27.4327H54.4651V26.8846H55.0132V26.3365H55.5613V25.7885H56.6575V25.2404H57.2055V24.6923H57.7536V24.1442H58.3017V23.5962H58.8498V23.0481H59.3978V22.5H59.9459V20.8558H60.494V19.7596H64.3305V20.3077H65.4267V20.8558H65.9748V21.9519H66.5228V25.2404H65.9748V26.3365H65.4267V26.8846H64.3305V27.4327H63.7825V27.9808H62.6863V28.5288H62.1382V29.0769H61.0421V29.625H60.494V30.1731H59.9459V30.7212H58.8498V31.2692H58.3017V31.8173H57.2055V32.3654H56.6575V32.9135H56.1094V33.4615H55.5613V34.5577H56.1094V35.1058H56.6575V35.6538H57.2055V36.2019H57.7536V36.75H58.3017V37.2981H58.8498V37.8462H59.3978V38.9423H59.9459V39.4904H60.494V40.0385H61.0421V40.5865H61.5901V41.1346H62.1382V41.6827H62.6863V42.2308H63.2344V42.7788H63.7825V43.875H64.3305V44.4231H64.8786V44.9712H65.4267V45.5192H65.9748V46.0673H66.5228V46.6154H67.0709V47.1635H67.619V47.7115H68.1671V48.8077H68.7151V49.3558H69.8113V49.9038H70.3594V50.4519H70.9075V51.5481H71.4555V52.0962H72.0036V52.6442H72.5517V53.1923H73.0998V53.7404H73.6478V54.2885H74.1959V54.8365H74.744V55.3846H75.2921V55.9327H75.8401V56.4808H76.3882V57.0288H76.9363V59.2212H74.1959ZM65.6322 41.6827V41.1346H66.1803V40.5865H66.7284V40.0385H67.2764V39.4904H67.8245V38.9423H68.3726V38.3942H68.9207V37.8462H69.4688V37.2981H70.0168V36.75H71.113V36.2019H71.6611V35.6538H72.2091V34.5577H72.7572V34.0096H73.3053V33.4615H73.8534V32.9135H74.4014V32.3654H74.9495V31.8173H75.4976V30.7212H76.0457V30.1731H76.5938V29.0769H77.1418V27.9808H77.6899V26.8846H78.238V25.7885H78.7861V25.2404H79.3341V24.1442H79.8822V21.9519H79.3341V21.4038H78.238V20.8558H74.4014V21.4038H73.3053V21.9519H71.6611V22.5H70.0168V23.0481H68.9207V23.5962H67.8245V24.1442H66.7284V24.6923H66.1803V25.2404H65.6322V25.7885H64.5361V26.3365H63.988V27.4327H63.4399V34.0096H63.988V39.4904H64.5361V41.6827H65.6322ZM60.1514 55.9327V55.3846H59.0553V54.8365H58.5072V53.7404H59.0553V52.0962H59.6034V44.4231H59.0553V39.4904H58.5072V38.9423H59.0553V38.3942H58.5072V36.75H57.9591V36.2019H58.5072V35.6538H57.9591V35.1058H58.5072V34.5577H57.9591V34.0096H58.5072V33.4615H57.9591V31.8173H57.4111V31.2692H57.9591V30.7212H57.4111V28.5288H56.863V24.6923H56.3149V23.5962H55.7668V21.4038H55.2188V19.7596H55.7668V19.2115H56.3149V18.6635H58.5072V19.2115H59.6034V19.7596H60.1514V20.3077H60.6995V20.8558H61.2476V21.4038H61.7957V21.9519H63.4399V21.4038H63.988V20.8558H64.5361V20.3077H65.6322V19.7596H66.7284V19.2115H68.3726V18.6635H70.0168V18.1154H71.6611V17.5673H73.3053V17.0192H75.4976V16.4712H82.6226V17.0192H83.7188V17.5673H84.2668V18.6635H84.8149V19.2115H85.363V24.1442H84.8149V25.7885H84.2668V26.3365H83.7188V27.4327H83.1707V27.9808H82.6226V28.5288H82.0745V29.625H81.5264V30.7212H80.9784V31.2692H80.4303V31.8173H79.8822V32.3654H79.3341V32.9135H78.7861V33.4615H78.238V34.5577H77.6899V35.1058H77.1418V36.2019H76.5938V36.75H76.0457V37.2981H75.4976V37.8462H74.9495V38.3942H74.4014V38.9423H73.8534V39.4904H73.3053V40.0385H72.7572V41.1346H72.2091V41.6827H71.6611V42.2308H71.113V42.7788H70.5649V43.3269H70.0168V43.875H69.4688V44.4231H68.3726V44.9712H67.8245V45.5192H67.2764V46.0673H66.7284V47.1635H65.6322V47.7115H65.0841V48.2596H64.5361V51H65.0841V51.5481H65.6322V52.0962H66.1803V52.6442H66.7284V54.2885H66.1803V54.8365H64.5361V55.3846H62.3438V55.9327H60.1514ZM122.29 43.3269V42.2308H122.838V43.3269H122.29ZM122.29 40.0385V39.4904H122.838V40.0385H122.29ZM124.482 38.9423V38.3942H125.03V38.9423H124.482ZM125.578 36.75V36.2019H126.126V36.75H125.578ZM121.742 36.75V35.6538H122.29V36.75H121.742ZM125.03 35.6538V35.1058H125.578V35.6538H125.03ZM92.6935 34.0096V33.4615H93.7897V32.9135H95.4339V32.3654H96.53V31.8173H98.1743V31.2692H99.2704V30.7212H100.915V30.1731H102.011V29.625H103.655V29.0769H104.751V28.5288H104.203V27.9808H103.107V27.4327H102.011V26.8846H101.463V26.3365H100.367V25.7885H99.8185V25.2404H98.7224V24.6923H97.0781V24.1442H95.4339V24.6923H94.8858V25.2404H94.3377V26.3365H93.7897V27.4327H93.2416V29.0769H92.6935V30.1731H92.1454V31.2692H91.5974V32.3654H91.0493V34.0096H92.6935ZM89.9531 49.3558V48.8077H88.857V48.2596H88.3089V47.7115H87.7608V47.1635H87.2127V46.6154H86.6647V46.0673H86.1166V45.5192H85.5685V44.4231H85.0204V42.7788H83.3762V43.3269H82.28V43.875H81.1839V43.3269H80.0877V42.7788H79.5397V41.1346H80.0877V40.5865H80.6358V40.0385H81.1839V38.9423H82.28V38.3942H83.3762V37.8462H83.9243V36.75H84.4724V34.5577H85.0204V32.9135H85.5685V31.2692H86.1166V29.625H86.6647V28.5288H87.2127V26.8846H87.7608V25.2404H88.3089V23.5962H88.857V22.5H89.405V21.4038H89.9531V20.8558H88.857V20.3077H87.7608V20.8558H85.5685V20.3077H85.0204V18.1154H85.5685V17.0192H86.1166V15.9231H86.6647V15.375H87.2127V14.8269H87.7608V15.9231H88.3089V16.4712H88.857V15.9231H89.9531V16.4712H91.0493V17.0192H92.1454V16.4712H92.6935V15.375H93.2416V14.2788H93.7897V13.7308H95.4339V13.1827H97.0781V13.7308H97.6262V14.8269H98.1743V15.375H98.7224V17.0192H98.1743V17.5673H97.0781V18.1154H96.53V19.7596H97.6262V20.3077H98.7224V20.8558H99.8185V21.4038H100.915V21.9519H102.011V22.5H103.107V23.0481H104.203V23.5962H105.299V24.1442H106.395V24.6923H107.492V25.2404H108.588V25.7885H109.684V26.3365H111.876V25.7885H112.972V25.2404H114.617V24.6923H115.713V24.1442H117.357V23.5962H118.453V23.0481H120.097V22.5H121.194V21.9519H122.838V21.4038H123.934V20.8558H124.482V20.3077H126.674V21.4038H128.319V22.5H128.867V23.5962H128.319V24.6923H127.77V25.2404H127.222V25.7885H124.482V25.2404H122.29V25.7885H121.194V26.3365H120.097V26.8846H118.453V27.4327H117.357V27.9808H116.261V28.5288H115.165V29.0769H114.069V29.625H112.972V30.1731H111.876V30.7212H110.78V31.2692H109.684V31.8173H108.588V32.3654H107.492V32.9135H105.847V33.4615H104.203V34.0096H102.559V34.5577H100.915V35.1058H99.2704V35.6538H97.6262V36.2019H95.982V36.75H95.4339V37.2981H94.3377V37.8462H93.2416V38.3942H92.1454V38.9423H91.0493V39.4904H90.5012V40.0385H89.9531V41.6827H90.5012V42.7788H91.0493V43.3269H93.7897V42.7788H94.8858V42.2308H97.0781V41.6827H98.7224V41.1346H99.8185V40.5865H100.915V40.0385H102.011V39.4904H102.559V38.9423H103.655V38.3942H104.203V37.8462H105.299V37.2981H106.395V36.75H107.492V36.2019H108.588V35.6538H109.684V35.1058H110.78V34.5577H111.876V34.0096H112.972V33.4615H114.069V32.9135H115.165V32.3654H116.261V31.8173H116.809V31.2692H118.453V30.7212H119.001V30.1731H119.549V29.625H120.097V29.0769H120.645V28.5288H121.742V27.9808H124.482V28.5288H125.03V29.0769H125.578V29.625H126.126V32.9135H125.578V34.0096H125.03V35.1058H124.482V36.2019H125.03V36.75H124.482V37.8462H123.934V40.0385H124.482V42.2308H123.934V40.5865H123.386V37.8462H122.838V35.6538H122.29V35.1058H121.194V34.5577H120.645V35.1058H120.097V35.6538H119.549V36.2019H119.001V36.75H117.357V37.2981H116.261V37.8462H115.165V38.3942H114.617V38.9423H113.52V39.4904H112.424V40.0385H111.328V40.5865H110.78V41.1346H109.684V41.6827H108.588V42.2308H107.492V42.7788H106.944V43.3269H106.395V43.875H105.299V44.4231H104.203V44.9712H103.107V45.5192H102.011V46.0673H100.915V46.6154H99.8185V47.1635H99.2704V47.7115H98.1743V48.2596H97.0781V48.8077H95.4339V49.3558H89.9531ZM118.659 22.5V21.9519H119.207V21.4038H120.303V20.8558H120.851V20.3077H121.947V19.7596H122.495V19.2115H123.591V18.6635H124.688V18.1154H125.236V17.5673H126.332V17.0192H126.88V16.4712H126.332V15.9231H125.236V15.375H123.591V14.8269H121.947V14.2788H120.851V13.7308H120.303V13.1827H119.755V12.6346H118.659V12.0865H118.111V11.5385H117.014V10.9904H116.466V16.4712H117.014V19.2115H117.563V22.5H118.659ZM118.111 46.6154V46.0673H116.466V45.5192H115.37V37.8462H114.822V34.0096H114.274V33.4615H113.178V32.9135H110.986V32.3654H109.889V32.9135H109.341V33.4615H108.793V34.5577H108.245V35.1058H106.053V34.0096H105.505V33.4615H104.957V32.9135H104.409V30.1731H104.957V29.0769H106.053V28.5288H107.697V29.0769H108.245V28.5288H109.341V27.9808H109.889V27.4327H110.986V26.8846H111.534V26.3365H112.63V25.7885H113.178V24.6923H112.63V21.4038H112.082V18.1154H111.534V14.8269H110.986V11.5385H110.438V8.25H109.889V7.15385H109.341V1.125H109.889V0.576923H111.534V1.125H112.082V1.67308H113.726V2.22115H117.014V2.76923H117.563V5.50962H118.111V6.60577H118.659V7.15385H119.207V7.70192H119.755V8.25H120.851V8.79808H121.947V9.34615H123.591V9.89423H125.236V10.4423H126.88V10.9904H127.976V11.5385H129.62V12.0865H130.716V12.6346H132.909V13.1827H135.101V17.0192H134.553V17.5673H134.005V18.1154H132.909V19.2115H132.361V19.7596H130.716V20.3077H129.62V20.8558H129.072V21.4038H127.976V21.9519H127.428V22.5H126.332V23.0481H125.784V23.5962H124.688V24.1442H124.139V24.6923H123.591V25.2404H122.495V25.7885H121.947V26.3365H121.399V26.8846H120.303V27.4327H119.207V27.9808H118.659V29.625H119.207V30.1731H119.755V30.7212H120.851V31.2692H122.495V31.8173H123.591V32.3654H125.236V32.9135H126.332V33.4615H127.976V34.0096H129.62V34.5577H130.716V35.1058H131.813V35.6538H133.457V36.2019H134.553V36.75H135.649V37.2981H138.389V37.8462H138.938V38.3942H140.034V38.9423H141.13V39.4904H142.774V40.0385H143.87V40.5865H144.418V38.3942H144.966V36.75H145.514V35.1058H146.063V36.2019H146.611V36.75H147.159V39.4904H147.707V41.1346H148.255V42.2308H148.803V44.9712H149.351V46.6154H147.159V46.0673H145.514V45.5192H142.774V44.9712H141.13V44.4231H139.486V43.875H137.841V43.3269H136.745V42.7788H135.649V42.2308H134.005V41.6827H132.909V41.1346H130.716V40.5865H128.524V40.0385H127.976V39.4904H126.332V38.9423H124.688V38.3942H123.043V37.8462H121.947V37.2981H120.851V36.75H120.303V40.5865H120.851V41.6827H121.399V42.7788H121.947V43.3269H122.495V43.875H123.043V44.9712H122.495V45.5192H121.399V46.0673H120.303V46.6154H118.111ZM153.941 19.7596V19.2115H154.489V19.7596H153.941ZM146.816 19.7596V18.6635H147.912V19.2115H148.46V19.7596H146.816ZM135.855 57.0288V56.4808H134.758V55.9327H133.662V55.3846H133.114V54.8365H132.566V52.6442H133.114V51H134.21V50.4519H138.595V49.9038H141.335V49.3558H144.076V48.8077H145.172V48.2596H146.816V47.7115H147.912V45.5192H148.46V40.5865H149.008V32.3654H149.556V29.0769H149.008V29.625H147.912V30.1731H146.816V30.7212H146.268V31.2692H145.72V31.8173H143.528V31.2692H142.98V30.7212H142.431V30.1731H141.883V27.4327H142.431V26.3365H142.98V25.7885H144.076V25.2404H145.172V24.6923H146.268V24.1442H147.364V23.5962H148.46V23.0481H149.556V22.5H150.653V21.9519H151.749V21.4038H152.845V20.8558H153.941V20.3077H155.037V19.7596H156.133V19.2115H156.681V18.1154H157.23V17.5673H160.518V18.1154H161.066V18.6635H161.614V19.7596H162.162V23.0481H161.614V23.5962H161.066V24.1442H159.97V24.6923H157.778V25.2404H156.681V26.8846H156.133V28.5288H155.585V36.2019H155.037V41.6827H154.489V45.5192H155.037V44.9712H155.585V44.4231H158.326V43.875H160.518V43.3269H162.71V42.7788H163.258V42.2308H163.806V42.7788H164.355V42.2308H164.903V41.6827H165.999V40.5865H166.547V39.4904H167.643V38.9423H171.48V39.4904H172.028V40.5865H172.576V44.9712H171.48V45.5192H168.191V46.0673H167.643V46.6154H166.547V47.1635H164.903V47.7115H163.258V48.2596H162.162V48.8077H160.518V49.3558H159.97V49.9038H156.681V50.4519H155.037V51H152.845V52.0962H150.653V52.6442H149.008V53.1923H147.912V53.7404H147.364V54.2885H144.076V54.8365H141.335V55.3846H139.691V55.9327H138.047V56.4808H137.499V57.0288H135.855ZM150.653 21.4038V20.3077H150.105V19.7596H150.653V19.2115H150.105V16.4712H148.46V17.5673H147.912V15.375H146.816V14.8269H146.268V14.2788H145.72V13.1827H145.172V12.0865H144.624V9.34615H145.172V7.70192H145.72V6.60577H146.268V6.05769H146.816V5.50962H147.364V4.96154H147.912V4.41346H149.556V3.86538H153.941V4.41346H155.037V4.96154H155.585V6.05769H156.681V7.15385H157.23V8.25H157.778V10.9904H157.23V12.0865H156.681V13.1827H156.133V14.2788H155.585V14.8269H155.037V15.375H154.489V15.9231H153.393V16.4712H153.941V17.0192H153.393V17.5673H152.845V18.6635H152.297V16.4712H151.201V21.4038H150.653ZM201.829 43.3269V42.2308H202.377V43.3269H201.829ZM201.829 40.0385V39.4904H202.377V40.0385H201.829ZM204.022 38.9423V38.3942H204.57V38.9423H204.022ZM205.118 36.75V36.2019H205.666V36.75H205.118ZM201.281 36.75V35.6538H201.829V36.75H201.281ZM204.57 35.6538V35.1058H205.118V35.6538H204.57ZM172.233 34.0096V33.4615H173.329V32.9135H174.974V32.3654H176.07V31.8173H177.714V31.2692H178.81V30.7212H180.454V30.1731H181.55V29.625H183.195V29.0769H184.291V28.5288H183.743V27.9808H182.647V27.4327H181.55V26.8846H181.002V26.3365H179.906V25.7885H179.358V25.2404H178.262V24.6923H176.618V24.1442H174.974V24.6923H174.425V25.2404H173.877V26.3365H173.329V27.4327H172.781V29.0769H172.233V30.1731H171.685V31.2692H171.137V32.3654H170.589V34.0096H172.233ZM169.493 49.3558V48.8077H168.397V48.2596H167.849V47.7115H167.3V47.1635H166.752V46.6154H166.204V46.0673H165.656V45.5192H165.108V44.4231H164.56V42.7788H162.916V43.3269H161.82V43.875H160.724V43.3269H159.627V42.7788H159.079V41.1346H159.627V40.5865H160.175V40.0385H160.724V38.9423H161.82V38.3942H162.916V37.8462H163.464V36.75H164.012V34.5577H164.56V32.9135H165.108V31.2692H165.656V29.625H166.204V28.5288H166.752V26.8846H167.3V25.2404H167.849V23.5962H168.397V22.5H168.945V21.4038H169.493V20.8558H168.397V20.3077H167.3V20.8558H165.108V20.3077H164.56V18.1154H165.108V17.0192H165.656V15.9231H166.204V15.375H166.752V14.8269H167.3V15.9231H167.849V16.4712H168.397V15.9231H169.493V16.4712H170.589V17.0192H171.685V16.4712H172.233V15.375H172.781V14.2788H173.329V13.7308H174.974V13.1827H176.618V13.7308H177.166V14.8269H177.714V15.375H178.262V17.0192H177.714V17.5673H176.618V18.1154H176.07V19.7596H177.166V20.3077H178.262V20.8558H179.358V21.4038H180.454V21.9519H181.55V22.5H182.647V23.0481H183.743V23.5962H184.839V24.1442H185.935V24.6923H187.031V25.2404H188.127V25.7885H189.224V26.3365H191.416V25.7885H192.512V25.2404H194.156V24.6923H195.252V24.1442H196.897V23.5962H197.993V23.0481H199.637V22.5H200.733V21.9519H202.377V21.4038H203.474V20.8558H204.022V20.3077H206.214V21.4038H207.858V22.5H208.406V23.5962H207.858V24.6923H207.31V25.2404H206.762V25.7885H204.022V25.2404H201.829V25.7885H200.733V26.3365H199.637V26.8846H197.993V27.4327H196.897V27.9808H195.8V28.5288H194.704V29.0769H193.608V29.625H192.512V30.1731H191.416V30.7212H190.32V31.2692H189.224V31.8173H188.127V32.3654H187.031V32.9135H185.387V33.4615H183.743V34.0096H182.099V34.5577H180.454V35.1058H178.81V35.6538H177.166V36.2019H175.522V36.75H174.974V37.2981H173.877V37.8462H172.781V38.3942H171.685V38.9423H170.589V39.4904H170.041V40.0385H169.493V41.6827H170.041V42.7788H170.589V43.3269H173.329V42.7788H174.425V42.2308H176.618V41.6827H178.262V41.1346H179.358V40.5865H180.454V40.0385H181.55V39.4904H182.099V38.9423H183.195V38.3942H183.743V37.8462H184.839V37.2981H185.935V36.75H187.031V36.2019H188.127V35.6538H189.224V35.1058H190.32V34.5577H191.416V34.0096H192.512V33.4615H193.608V32.9135H194.704V32.3654H195.8V31.8173H196.349V31.2692H197.993V30.7212H198.541V30.1731H199.089V29.625H199.637V29.0769H200.185V28.5288H201.281V27.9808H204.022V28.5288H204.57V29.0769H205.118V29.625H205.666V32.9135H205.118V34.0096H204.57V35.1058H204.022V36.2019H204.57V36.75H204.022V37.8462H203.474V40.0385H204.022V42.2308H203.474V40.5865H202.925V37.8462H202.377V35.6538H201.829V35.1058H200.733V34.5577H200.185V35.1058H199.637V35.6538H199.089V36.2019H198.541V36.75H196.897V37.2981H195.8V37.8462H194.704V38.3942H194.156V38.9423H193.06V39.4904H191.964V40.0385H190.868V40.5865H190.32V41.1346H189.224V41.6827H188.127V42.2308H187.031V42.7788H186.483V43.3269H185.935V43.875H184.839V44.4231H183.743V44.9712H182.647V45.5192H181.55V46.0673H180.454V46.6154H179.358V47.1635H178.81V47.7115H177.714V48.2596H176.618V48.8077H174.974V49.3558H169.493ZM192.169 52.6442V52.0962H191.073V51.5481H190.525V51H189.977V49.9038H189.429V48.2596H189.977V44.9712H190.525V41.6827H191.073V33.4615H190.525V28.5288H189.977V27.9808H190.525V27.4327H189.977V25.7885H189.429V25.2404H189.977V24.6923H189.429V24.1442H189.977V23.5962H189.429V23.0481H189.977V22.5H189.429V20.8558H188.881V20.3077H189.429V19.7596H188.881V17.5673H188.333V13.7308H187.785V12.6346H187.237V10.4423H186.689V8.79808H187.237V8.25H187.785V7.70192H189.977V8.25H191.073V8.79808H191.621V9.34615H192.169V9.89423H192.718V10.4423H193.266V10.9904H193.814V12.0865H194.362V12.6346H194.91V13.1827H195.458V14.2788H196.006V14.8269H196.554V15.9231H197.65V17.0192H198.198V18.1154H198.746V18.6635H199.294V19.2115H199.843V20.3077H200.391V20.8558H200.939V21.4038H201.487V22.5H202.035V23.5962H202.583V24.6923H203.131V25.7885H203.679V26.3365H204.227V27.4327H204.775V27.9808H205.323V29.0769H205.871V29.625H206.419V28.5288H206.968V27.4327H207.516V26.3365H208.064V24.6923H208.612V23.5962H209.16V22.5H209.708V20.8558H210.256V19.2115H210.804V17.0192H211.352V15.9231H211.9V15.375H211.352V14.8269H207.516V15.375H205.323V15.9231H204.227V15.375H204.775V14.8269H205.871V14.2788H206.968V13.7308H208.064V13.1827H208.612V12.6346H210.256V12.0865H210.804V11.5385H212.448V10.9904H215.189V10.4423H217.929V10.9904H219.573V11.5385H220.121V12.6346H219.573V13.7308H219.025V14.8269H218.477V15.9231H217.929V17.5673H217.381V18.1154H216.833V19.2115H216.285V20.8558H215.737V21.4038H215.189V23.0481H214.641V25.2404H214.093V27.4327H213.544V29.625H212.448V30.1731H212.996V31.2692H212.448V32.9135H211.9V35.6538H211.352V42.7788H211.9V43.3269H212.448V46.0673H211.9V47.1635H211.352V48.2596H210.804V48.8077H207.516V48.2596H206.968V47.7115H206.419V47.1635H205.871V45.5192H205.323V41.1346H204.775V38.9423H204.227V38.3942H203.679V37.2981H203.131V36.2019H202.583V35.1058H202.035V34.0096H201.487V33.4615H200.939V32.3654H200.391V31.2692H199.843V30.1731H199.294V29.625H198.746V28.5288H198.198V27.4327H197.65V26.3365H196.554V25.7885H196.006V26.3365H195.458V27.9808H194.91V28.5288H195.458V29.0769H194.91V29.625H195.458V35.1058H196.006V35.6538H195.458V36.2019H196.006V37.2981H195.458V37.8462H196.006V40.5865H196.554V42.2308H196.006V42.7788H196.554V49.9038H196.006V51H195.458V52.0962H193.814V52.6442H192.169ZM243.894 54.2885V53.7404H244.442V54.2885H243.894ZM243.346 53.7404V53.1923H243.894V53.7404H243.346ZM244.99 53.1923V52.6442H245.538V53.1923H244.99ZM249.375 50.4519V49.3558H249.923V50.4519H249.375ZM249.923 48.8077V48.2596H250.471V48.8077H249.923ZM242.798 41.6827V40.5865H243.346V41.1346H243.894V41.6827H242.798ZM243.894 40.0385V39.4904H244.442V40.0385H243.894ZM244.99 38.9423V38.3942H245.538V38.9423H244.99ZM249.375 38.3942V37.8462H249.923V38.3942H249.375ZM214.298 12.0865V10.9904H214.846V12.0865H214.298ZM214.298 10.4423V9.89423H215.394V10.4423H214.298ZM246.087 57.0288V53.7404H245.538V53.1923H246.087V49.9038H245.538V52.0962H244.99V49.9038H238.413V49.3558H237.317V48.8077H236.769V48.2596H235.673V47.7115H235.125V47.1635H234.029V46.6154H232.933V46.0673H232.385V45.5192H231.837V44.9712H231.288V44.4231H230.74V43.875H229.644V43.3269H229.096V42.7788H228.548V42.2308H228V41.6827H227.452V41.1346H226.904V40.5865H226.356V40.0385H225.808V39.4904H225.26V38.9423H224.712V38.3942H224.163V37.8462H223.615V37.2981H223.067V36.75H222.519V36.2019H221.971V35.1058H221.423V34.5577H220.875V33.4615H220.327V32.3654H219.779V31.8173H219.231V30.7212H218.683V29.625H218.135V28.5288H217.587V27.9808H217.038V26.8846H216.49V25.7885H215.942V25.2404H215.394V23.0481H214.846V21.9519H214.298V20.8558H213.75V19.2115H213.202V17.5673H212.654V16.4712H212.106V13.7308H212.654V13.1827H213.202V12.6346H215.394V13.1827H215.942V12.0865H215.394V10.4423H215.942V10.9904H216.49V9.89423H218.683V10.9904H219.231V11.5385H219.779V13.1827H219.231V13.7308H221.423V14.2788H223.615V14.8269H225.808V15.375H227.452V15.9231H228.548V16.4712H229.644V17.0192H231.288V17.5673H232.933V18.1154H234.029V18.6635H235.125V19.2115H236.769V19.7596H237.865V19.2115H240.606V19.7596H241.154V20.3077H241.702V20.8558H242.25V25.2404H241.702V25.7885H241.154V26.3365H240.058V26.8846H237.317V26.3365H236.769V25.7885H236.221V24.6923H235.673V24.1442H235.125V23.5962H234.029V23.0481H232.385V22.5H231.288V21.9519H229.644V21.4038H228.548V20.8558H226.904V20.3077H225.26V19.7596H224.163V19.2115H223.067V18.6635H221.971V18.1154H218.683V18.6635H219.231V19.2115H219.779V20.3077H220.327V21.4038H220.875V23.0481H221.423V23.5962H221.971V24.6923H222.519V25.7885H223.067V26.8846H223.615V27.9808H224.163V28.5288H224.712V29.625H225.26V30.1731H225.808V31.2692H226.356V31.8173H226.904V32.9135H227.452V33.4615H228V34.0096H228.548V34.5577H229.096V35.1058H230.192V35.6538H230.74V36.2019H231.288V36.75H231.837V37.2981H232.385V37.8462H232.933V38.3942H233.481V38.9423H234.029V39.4904H234.577V40.0385H235.125V40.5865H236.221V41.1346H237.317V41.6827H238.413V42.2308H239.51V42.7788H241.154V43.3269H244.99V41.1346H245.538V40.5865H246.087V40.0385H246.635V39.4904H249.375V40.0385H250.471V41.1346H251.019V44.4231H250.471V45.5192H249.923V46.6154H249.375V47.7115H248.827V48.2596H248.279V51H247.731V49.3558H247.183V51.5481H246.635V57.0288H246.087ZM219.231 10.9904V9.89423H219.779V10.9904H219.231ZM213.202 9.34615V8.79808H213.75V9.34615H213.202ZM217.038 9.34615V8.79808H217.587V9.34615H217.038ZM218.135 9.34615V8.79808H218.683V9.34615H218.135ZM220.875 9.34615V8.79808H221.423V9.34615H220.875ZM222.519 8.79808V8.25H223.067V8.79808H222.519ZM214.846 7.70192V7.15385H215.394V7.70192H214.846ZM281.369 43.3269V42.2308H281.917V43.3269H281.369ZM281.369 40.0385V39.4904H281.917V40.0385H281.369ZM283.561 38.9423V38.3942H284.109V38.9423H283.561ZM284.657 36.75V36.2019H285.206V36.75H284.657ZM280.821 36.75V35.6538H281.369V36.75H280.821ZM284.109 35.6538V35.1058H284.657V35.6538H284.109ZM251.773 34.0096V33.4615H252.869V32.9135H254.513V32.3654H255.609V31.8173H257.254V31.2692H258.35V30.7212H259.994V30.1731H261.09V29.625H262.734V29.0769H263.831V28.5288H263.282V27.9808H262.186V27.4327H261.09V26.8846H260.542V26.3365H259.446V25.7885H258.898V25.2404H257.802V24.6923H256.157V24.1442H254.513V24.6923H253.965V25.2404H253.417V26.3365H252.869V27.4327H252.321V29.0769H251.773V30.1731H251.225V31.2692H250.677V32.3654H250.129V34.0096H251.773ZM249.032 49.3558V48.8077H247.936V48.2596H247.388V47.7115H246.84V47.1635H246.292V46.6154H245.744V46.0673H245.196V45.5192H244.648V44.4231H244.1V42.7788H242.456V43.3269H241.359V43.875H240.263V43.3269H239.167V42.7788H238.619V41.1346H239.167V40.5865H239.715V40.0385H240.263V38.9423H241.359V38.3942H242.456V37.8462H243.004V36.75H243.552V34.5577H244.1V32.9135H244.648V31.2692H245.196V29.625H245.744V28.5288H246.292V26.8846H246.84V25.2404H247.388V23.5962H247.936V22.5H248.484V21.4038H249.032V20.8558H247.936V20.3077H246.84V20.8558H244.648V20.3077H244.1V18.1154H244.648V17.0192H245.196V15.9231H245.744V15.375H246.292V14.8269H246.84V15.9231H247.388V16.4712H247.936V15.9231H249.032V16.4712H250.129V17.0192H251.225V16.4712H251.773V15.375H252.321V14.2788H252.869V13.7308H254.513V13.1827H256.157V13.7308H256.706V14.8269H257.254V15.375H257.802V17.0192H257.254V17.5673H256.157V18.1154H255.609V19.7596H256.706V20.3077H257.802V20.8558H258.898V21.4038H259.994V21.9519H261.09V22.5H262.186V23.0481H263.282V23.5962H264.379V24.1442H265.475V24.6923H266.571V25.2404H267.667V25.7885H268.763V26.3365H270.956V25.7885H272.052V25.2404H273.696V24.6923H274.792V24.1442H276.436V23.5962H277.532V23.0481H279.177V22.5H280.273V21.9519H281.917V21.4038H283.013V20.8558H283.561V20.3077H285.754V21.4038H287.398V22.5H287.946V23.5962H287.398V24.6923H286.85V25.2404H286.302V25.7885H283.561V25.2404H281.369V25.7885H280.273V26.3365H279.177V26.8846H277.532V27.4327H276.436V27.9808H275.34V28.5288H274.244V29.0769H273.148V29.625H272.052V30.1731H270.956V30.7212H269.859V31.2692H268.763V31.8173H267.667V32.3654H266.571V32.9135H264.927V33.4615H263.282V34.0096H261.638V34.5577H259.994V35.1058H258.35V35.6538H256.706V36.2019H255.061V36.75H254.513V37.2981H253.417V37.8462H252.321V38.3942H251.225V38.9423H250.129V39.4904H249.581V40.0385H249.032V41.6827H249.581V42.7788H250.129V43.3269H252.869V42.7788H253.965V42.2308H256.157V41.6827H257.802V41.1346H258.898V40.5865H259.994V40.0385H261.09V39.4904H261.638V38.9423H262.734V38.3942H263.282V37.8462H264.379V37.2981H265.475V36.75H266.571V36.2019H267.667V35.6538H268.763V35.1058H269.859V34.5577H270.956V34.0096H272.052V33.4615H273.148V32.9135H274.244V32.3654H275.34V31.8173H275.888V31.2692H277.532V30.7212H278.081V30.1731H278.629V29.625H279.177V29.0769H279.725V28.5288H280.821V27.9808H283.561V28.5288H284.109V29.0769H284.657V29.625H285.206V32.9135H284.657V34.0096H284.109V35.1058H283.561V36.2019H284.109V36.75H283.561V37.8462H283.013V40.0385H283.561V42.2308H283.013V40.5865H282.465V37.8462H281.917V35.6538H281.369V35.1058H280.273V34.5577H279.725V35.1058H279.177V35.6538H278.629V36.2019H278.081V36.75H276.436V37.2981H275.34V37.8462H274.244V38.3942H273.696V38.9423H272.6V39.4904H271.504V40.0385H270.407V40.5865H269.859V41.1346H268.763V41.6827H267.667V42.2308H266.571V42.7788H266.023V43.3269H265.475V43.875H264.379V44.4231H263.282V44.9712H262.186V45.5192H261.09V46.0673H259.994V46.6154H258.898V47.1635H258.35V47.7115H257.254V48.2596H256.157V48.8077H254.513V49.3558H249.032Z" fill="#D0F59E"/>
</svg>
