<svg width="1214" height="248" viewBox="0 0 1214 248" fill="none" xmlns="http://www.w3.org/2000/svg">
<path d="M1185.95 180.189V175.569H1188.26V180.189H1185.95ZM1185.95 166.328V164.018H1188.26V166.328H1185.95ZM1195.2 161.708V159.398H1197.51V161.708H1195.2ZM1199.82 152.467V150.157H1202.13V152.467H1199.82ZM1183.64 152.467V147.847H1185.95V152.467H1183.64ZM1197.51 147.847V145.537H1199.82V147.847H1197.51ZM1061.21 140.917V138.607H1065.83V136.297H1072.76V133.987H1077.38V131.676H1084.31V129.366H1088.93V127.056H1095.86V124.746H1100.48V122.436H1107.41V120.126H1112.03V117.816H1109.72V115.506H1105.1V113.196H1100.48V110.885H1098.17V108.575H1093.55V106.265H1091.24V103.955H1086.62V101.645H1079.69V99.3349H1072.76V101.645H1070.45V103.955H1068.14V108.575H1065.83V113.196H1063.52V120.126H1061.21V124.746H1058.9V129.366H1056.59V133.987H1054.28V140.917H1061.21ZM1049.66 205.6V203.29H1045.04V200.98H1042.73V198.67H1040.42V196.36H1038.11V194.05H1035.8V191.739H1033.49V189.429H1031.18V184.809H1028.87V177.879H1021.94V180.189H1017.32V182.499H1012.7V180.189H1008.08V177.879H1005.77V170.948H1008.08V168.638H1010.39V166.328H1012.7V161.708H1017.32V159.398H1021.94V157.088H1024.25V152.467H1026.56V143.227H1028.87V136.297H1031.18V129.366H1033.49V122.436H1035.8V117.816H1038.11V110.885H1040.42V103.955H1042.73V97.0248H1045.04V92.4045H1047.35V87.7843H1049.66V85.4742H1045.04V83.1641H1040.42V85.4742H1031.18V83.1641H1028.87V73.9236H1031.18V69.3034H1033.49V64.6832H1035.8V62.3731H1038.11V60.0629H1040.42V64.6832H1042.73V66.9933H1045.04V64.6832H1049.66V66.9933H1054.28V69.3034H1058.9V66.9933H1061.21V62.3731H1063.52V57.7528H1065.83V55.4427H1072.76V53.1326H1079.69V55.4427H1082V60.0629H1084.31V62.3731H1086.62V69.3034H1084.31V71.6135H1079.69V73.9236H1077.38V80.854H1082V83.1641H1086.62V85.4742H1091.24V87.7843H1095.86V90.0944H1100.48V92.4045H1105.1V94.7147H1109.72V97.0248H1114.34V99.3349H1118.96V101.645H1123.58V103.955H1128.2V106.265H1132.82V108.575H1142.06V106.265H1146.68V103.955H1153.61V101.645H1158.23V99.3349H1165.16V97.0248H1169.78V94.7147H1176.71V92.4045H1181.33V90.0944H1188.26V87.7843H1192.89V85.4742H1195.2V83.1641H1204.44V87.7843H1211.37V92.4045H1213.68V97.0248H1211.37V101.645H1209.06V103.955H1206.75V106.265H1195.2V103.955H1185.95V106.265H1181.33V108.575H1176.71V110.885H1169.78V113.196H1165.16V115.506H1160.54V117.816H1155.92V120.126H1151.3V122.436H1146.68V124.746H1142.06V127.056H1137.44V129.366H1132.82V131.676H1128.2V133.987H1123.58V136.297H1116.65V138.607H1109.72V140.917H1102.79V143.227H1095.86V145.537H1088.93V147.847H1082V150.157H1075.07V152.467H1072.76V154.778H1068.14V157.088H1063.52V159.398H1058.9V161.708H1054.28V164.018H1051.97V166.328H1049.66V173.259H1051.97V177.879H1054.28V180.189H1065.83V177.879H1070.45V175.569H1079.69V173.259H1086.62V170.948H1091.24V168.638H1095.86V166.328H1100.48V164.018H1102.79V161.708H1107.41V159.398H1109.72V157.088H1114.34V154.778H1118.96V152.467H1123.58V150.157H1128.2V147.847H1132.82V145.537H1137.44V143.227H1142.06V140.917H1146.68V138.607H1151.3V136.297H1155.92V133.987H1160.54V131.676H1162.85V129.366H1169.78V127.056H1172.09V124.746H1174.4V122.436H1176.71V120.126H1179.02V117.816H1183.64V115.506H1195.2V117.816H1197.51V120.126H1199.82V122.436H1202.13V136.297H1199.82V140.917H1197.51V145.537H1195.2V150.157H1197.51V152.467H1195.2V157.088H1192.89V166.328H1195.2V175.569H1192.89V168.638H1190.58V157.088H1188.26V147.847H1185.95V145.537H1181.33V143.227H1179.02V145.537H1176.71V147.847H1174.4V150.157H1172.09V152.467H1165.16V154.778H1160.54V157.088H1155.92V159.398H1153.61V161.708H1148.99V164.018H1144.37V166.328H1139.75V168.638H1137.44V170.948H1132.82V173.259H1128.2V175.569H1123.58V177.879H1121.27V180.189H1118.96V182.499H1114.34V184.809H1109.72V187.119H1105.1V189.429H1100.48V191.739H1095.86V194.05H1091.24V196.36H1088.93V198.67H1084.31V200.98H1079.69V203.29H1072.76V205.6H1049.66Z" fill="#F4F6FA" fill-opacity="0.04"/>
<path d="M1028 226.391V224.081H1030.31V226.391H1028ZM1025.69 224.081V221.771H1028V224.081H1025.69ZM1032.62 221.771V219.461H1034.93V221.771H1032.62ZM1051.1 210.22V205.6H1053.41V210.22H1051.1ZM1053.41 203.29V200.98H1055.72V203.29H1053.41ZM1023.38 173.259V168.638H1025.69V170.948H1028V173.259H1023.38ZM1028 166.328V164.018H1030.31V166.328H1028ZM1032.62 161.708V159.398H1034.93V161.708H1032.62ZM1051.1 159.398V157.088H1053.41V159.398H1051.1ZM903.255 48.5124V43.8921H905.565V48.5124H903.255ZM903.255 41.582V39.2719H907.875V41.582H903.255ZM1037.24 237.942V224.081H1034.93V221.771H1037.24V207.91H1034.93V217.151H1032.62V207.91H1004.9V205.6H1000.28V203.29H997.969V200.98H993.349V198.67H991.039V196.36H986.419V194.05H981.799V191.739H979.488V189.429H977.178V187.119H974.868V184.809H972.558V182.499H967.938V180.189H965.628V177.879H963.318V175.569H961.007V173.259H958.697V170.948H956.387V168.638H954.077V166.328H951.767V164.018H949.457V161.708H947.147V159.398H944.837V157.088H942.527V154.778H940.216V152.467H937.906V150.157H935.596V145.537H933.286V143.227H930.976V138.607H928.666V133.987H926.356V131.676H924.046V127.056H921.736V122.436H919.425V117.816H917.115V115.506H914.805V110.885H912.495V106.265H910.185V103.955H907.875V94.7147H905.565V90.0944H903.255V85.4742H900.945V78.5439H898.634V71.6135H896.324V66.9933H894.014V55.4427H896.324V53.1326H898.634V50.8225H907.875V53.1326H910.185V48.5124H907.875V41.582H910.185V43.8921H912.495V39.2719H921.736V43.8921H924.046V46.2023H926.356V53.1326H924.046V55.4427H933.286V57.7528H942.527V60.0629H951.767V62.3731H958.697V64.6832H963.318V66.9933H967.938V69.3034H974.868V71.6135H981.799V73.9236H986.419V76.2337H991.039V78.5439H997.969V80.854H1002.59V78.5439H1014.14V80.854H1016.45V83.1641H1018.76V85.4742H1021.07V103.955H1018.76V106.265H1016.45V108.575H1011.83V110.885H1000.28V108.575H997.969V106.265H995.659V101.645H993.349V99.3349H991.039V97.0248H986.419V94.7147H979.488V92.4045H974.868V90.0944H967.938V87.7843H963.318V85.4742H956.387V83.1641H949.457V80.854H944.837V78.5439H940.216V76.2337H935.596V73.9236H921.736V76.2337H924.046V78.5439H926.356V83.1641H928.666V87.7843H930.976V94.7147H933.286V97.0248H935.596V101.645H937.906V106.265H940.216V110.885H942.527V115.506H944.837V117.816H947.147V122.436H949.457V124.746H951.767V129.366H954.077V131.676H956.387V136.297H958.697V138.607H961.007V140.917H963.318V143.227H965.628V145.537H970.248V147.847H972.558V150.157H974.868V152.467H977.178V154.778H979.488V157.088H981.799V159.398H984.109V161.708H986.419V164.018H988.729V166.328H991.039V168.638H995.659V170.948H1000.28V173.259H1004.9V175.569H1009.52V177.879H1016.45V180.189H1032.62V170.948H1034.93V168.638H1037.24V166.328H1039.55V164.018H1051.1V166.328H1055.72V170.948H1058.03V184.809H1055.72V189.429H1053.41V194.05H1051.1V198.67H1048.79V200.98H1046.48V212.53H1044.17V205.6H1041.86V214.841H1039.55V237.942H1037.24ZM924.046 43.8921V39.2719H926.356V43.8921H924.046ZM898.634 36.9618V34.6517H900.945V36.9618H898.634ZM914.805 36.9618V34.6517H917.115V36.9618H914.805ZM919.425 36.9618V34.6517H921.736V36.9618H919.425ZM930.976 36.9618V34.6517H933.286V36.9618H930.976ZM937.906 34.6517V32.3416H940.216V34.6517H937.906ZM905.565 30.0315V27.7213H907.875V30.0315H905.565Z" fill="#F4F6FA" fill-opacity="0.04"/>
<path d="M809.984 219.461V217.151H805.364V214.841H803.053V212.53H800.743V207.91H798.433V200.98H800.743V187.119H803.053V173.259H805.364V138.607H803.053V117.816H800.743V115.506H803.053V113.196H800.743V106.265H798.433V103.955H800.743V101.645H798.433V99.3349H800.743V97.0248H798.433V94.7147H800.743V92.4045H798.433V85.4742H796.123V83.1641H798.433V80.854H796.123V71.6135H793.813V55.4427H791.503V50.8225H789.193V41.582H786.883V34.6517H789.193V32.3416H791.503V30.0315H800.743V32.3416H805.364V34.6517H807.674V36.9618H809.984V39.2719H812.294V41.582H814.604V43.8921H816.914V48.5124H819.224V50.8225H821.534V53.1326H823.844V57.7528H826.155V60.0629H828.465V64.6832H833.085V69.3034H835.395V73.9236H837.705V76.2337H840.015V78.5439H842.325V83.1641H844.635V85.4742H846.946V87.7843H849.256V92.4045H851.566V97.0248H853.876V101.645H856.186V106.265H858.496V108.575H860.806V113.196H863.116V115.506H865.427V120.126H867.737V122.436H870.047V117.816H872.357V113.196H874.667V108.575H876.977V101.645H879.287V97.0248H881.597V92.4045H883.907V85.4742H886.218V78.5439H888.528V69.3034H890.838V64.6832H893.148V62.3731H890.838V60.0629H874.667V62.3731H865.427V64.6832H860.806V62.3731H863.116V60.0629H867.737V57.7528H872.357V55.4427H876.977V53.1326H879.287V50.8225H886.218V48.5124H888.528V46.2023H895.458V43.8921H907.009V41.582H918.559V43.8921H925.489V46.2023H927.8V50.8225H925.489V55.4427H923.179V60.0629H920.869V64.6832H918.559V71.6135H916.249V73.9236H913.939V78.5439H911.629V85.4742H909.319V87.7843H907.009V94.7147H904.698V103.955H902.388V113.196H900.078V122.436H895.458V124.746H897.768V129.366H895.458V136.297H893.148V147.847H890.838V177.879H893.148V180.189H895.458V191.739H893.148V196.36H890.838V200.98H888.528V203.29H874.667V200.98H872.357V198.67H870.047V196.36H867.737V189.429H865.427V170.948H863.116V161.708H860.806V159.398H858.496V154.778H856.186V150.157H853.876V145.537H851.566V140.917H849.256V138.607H846.946V133.987H844.635V129.366H842.325V124.746H840.015V122.436H837.705V117.816H835.395V113.196H833.085V108.575H828.465V106.265H826.155V108.575H823.844V115.506H821.534V117.816H823.844V120.126H821.534V122.436H823.844V145.537H826.155V147.847H823.844V150.157H826.155V154.778H823.844V157.088H826.155V168.638H828.465V175.569H826.155V177.879H828.465V207.91H826.155V212.53H823.844V217.151H816.914V219.461H809.984Z" fill="#F4F6FA" fill-opacity="0.04"/>
<path d="M850.7 180.189V175.569H853.01V180.189H850.7ZM850.7 166.328V164.018H853.01V166.328H850.7ZM859.94 161.708V159.398H862.25V161.708H859.94ZM864.56 152.467V150.157H866.87V152.467H864.56ZM848.389 152.467V147.847H850.7V152.467H848.389ZM862.25 147.847V145.537H864.56V147.847H862.25ZM725.953 140.917V138.607H730.574V136.297H737.504V133.987H742.124V131.676H749.055V129.366H753.675V127.056H760.605V124.746H765.225V122.436H772.156V120.126H776.776V117.816H774.466V115.506H769.846V113.196H765.225V110.885H762.915V108.575H758.295V106.265H755.985V103.955H751.365V101.645H744.434V99.3349H737.504V101.645H735.194V103.955H732.884V108.575H730.574V113.196H728.263V120.126H725.953V124.746H723.643V129.366H721.333V133.987H719.023V140.917H725.953ZM714.403 205.6V203.29H709.783V200.98H707.472V198.67H705.162V196.36H702.852V194.05H700.542V191.739H698.232V189.429H695.922V184.809H693.612V177.879H686.681V180.189H682.061V182.499H677.441V180.189H672.821V177.879H670.511V170.948H672.821V168.638H675.131V166.328H677.441V161.708H682.061V159.398H686.681V157.088H688.992V152.467H691.302V143.227H693.612V136.297H695.922V129.366H698.232V122.436H700.542V117.816H702.852V110.885H705.162V103.955H707.472V97.0248H709.783V92.4045H712.093V87.7843H714.403V85.4742H709.783V83.1641H705.162V85.4742H695.922V83.1641H693.612V73.9236H695.922V69.3034H698.232V64.6832H700.542V62.3731H702.852V60.0629H705.162V64.6832H707.472V66.9933H709.783V64.6832H714.403V66.9933H719.023V69.3034H723.643V66.9933H725.953V62.3731H728.263V57.7528H730.574V55.4427H737.504V53.1326H744.434V55.4427H746.744V60.0629H749.055V62.3731H751.365V69.3034H749.055V71.6135H744.434V73.9236H742.124V80.854H746.744V83.1641H751.365V85.4742H755.985V87.7843H760.605V90.0944H765.225V92.4045H769.846V94.7147H774.466V97.0248H779.086V99.3349H783.706V101.645H788.326V103.955H792.947V106.265H797.567V108.575H806.807V106.265H811.428V103.955H818.358V101.645H822.978V99.3349H829.909V97.0248H834.529V94.7147H841.459V92.4045H846.079V90.0944H853.01V87.7843H857.63V85.4742H859.94V83.1641H869.18V87.7843H876.111V92.4045H878.421V97.0248H876.111V101.645H873.801V103.955H871.491V106.265H859.94V103.955H850.7V106.265H846.079V108.575H841.459V110.885H834.529V113.196H829.909V115.506H825.288V117.816H820.668V120.126H816.048V122.436H811.428V124.746H806.807V127.056H802.187V129.366H797.567V131.676H792.947V133.987H788.326V136.297H781.396V138.607H774.466V140.917H767.535V143.227H760.605V145.537H753.675V147.847H746.744V150.157H739.814V152.467H737.504V154.778H732.884V157.088H728.263V159.398H723.643V161.708H719.023V164.018H716.713V166.328H714.403V173.259H716.713V177.879H719.023V180.189H730.574V177.879H735.194V175.569H744.434V173.259H751.365V170.948H755.985V168.638H760.605V166.328H765.225V164.018H767.535V161.708H772.156V159.398H774.466V157.088H779.086V154.778H783.706V152.467H788.326V150.157H792.947V147.847H797.567V145.537H802.187V143.227H806.807V140.917H811.428V138.607H816.048V136.297H820.668V133.987H825.288V131.676H827.598V129.366H834.529V127.056H836.839V124.746H839.149V122.436H841.459V120.126H843.769V117.816H848.389V115.506H859.94V117.816H862.25V120.126H864.56V122.436H866.87V136.297H864.56V140.917H862.25V145.537H859.94V150.157H862.25V152.467H859.94V157.088H857.63V166.328H859.94V175.569H857.63V168.638H855.32V157.088H853.01V147.847H850.7V145.537H846.079V143.227H843.769V145.537H841.459V147.847H839.149V150.157H836.839V152.467H829.909V154.778H825.288V157.088H820.668V159.398H818.358V161.708H813.738V164.018H809.117V166.328H804.497V168.638H802.187V170.948H797.567V173.259H792.947V175.569H788.326V177.879H786.016V180.189H783.706V182.499H779.086V184.809H774.466V187.119H769.846V189.429H765.225V191.739H760.605V194.05H755.985V196.36H753.675V198.67H749.055V200.98H744.434V203.29H737.504V205.6H714.403Z" fill="#F4F6FA" fill-opacity="0.04"/>
<path d="M648.853 80.854V78.5439H651.163V80.854H648.853ZM618.822 80.854V76.2337H623.442V78.5439H625.752V80.854H618.822ZM572.62 237.942V235.632H567.999V233.322H563.379V231.011H561.069V228.701H558.759V219.461H561.069V212.53H565.689V210.22H584.17V207.91H595.721V205.6H607.271V203.29H611.891V200.98H618.822V198.67H623.442V189.429H625.752V168.638H628.062V133.987H630.372V120.126H628.062V122.436H623.442V124.746H618.822V127.056H616.512V129.366H614.202V131.676H604.961V129.366H602.651V127.056H600.341V124.746H598.031V113.196H600.341V108.575H602.651V106.265H607.271V103.955H611.891V101.645H616.512V99.3349H621.132V97.0248H625.752V94.7147H630.372V92.4045H634.993V90.0944H639.613V87.7843H644.233V85.4742H648.853V83.1641H653.474V80.854H658.094V78.5439H660.404V73.9236H662.714V71.6135H676.575V73.9236H678.885V76.2337H681.195V80.854H683.505V94.7147H681.195V97.0248H678.885V99.3349H674.265V101.645H665.024V103.955H660.404V110.885H658.094V117.816H655.784V150.157H653.474V173.259H651.163V189.429H653.474V187.119H655.784V184.809H667.334V182.499H676.575V180.189H685.815V177.879H688.125V175.569H690.435V177.879H692.745V175.569H695.056V173.259H699.676V168.638H701.986V164.018H706.606V161.708H722.777V164.018H725.087V168.638H727.397V187.119H722.777V189.429H708.916V191.739H706.606V194.05H701.986V196.36H695.056V198.67H688.125V200.98H683.505V203.29H676.575V205.6H674.265V207.91H660.404V210.22H653.474V212.53H644.233V217.151H634.993V219.461H628.062V221.771H623.442V224.081H621.132V226.391H607.271V228.701H595.721V231.011H588.79V233.322H581.86V235.632H579.55V237.942H572.62ZM634.993 87.7843V83.1641H632.682V80.854H634.993V78.5439H632.682V66.9933H625.752V71.6135H623.442V62.3731H618.822V60.0629H616.512V57.7528H614.202V53.1326H611.891V48.5124H609.581V36.9618H611.891V30.0315H614.202V25.4112H616.512V23.1011H618.822V20.791H621.132V18.4809H623.442V16.1708H630.372V13.8607H648.853V16.1708H653.474V18.4809H655.784V23.1011H660.404V27.7213H662.714V32.3416H665.024V43.8921H662.714V48.5124H660.404V53.1326H658.094V57.7528H655.784V60.0629H653.474V62.3731H651.163V64.6832H646.543V66.9933H648.853V69.3034H646.543V71.6135H644.233V76.2337H641.923V66.9933H637.303V87.7843H634.993Z" fill="#F4F6FA" fill-opacity="0.04"/>
<path d="M500.14 92.4046V90.0945H502.45V87.7843H507.07V85.4742H509.38V83.1641H514V80.854H516.31V78.5439H520.931V76.2338H525.551V73.9237H527.861V71.6135H532.481V69.3034H534.791V66.9933H532.481V64.6832H527.861V62.3731H520.931V60.063H514V57.7529H509.38V55.4427H507.07V53.1326H504.76V50.8225H500.14V48.5124H497.83V46.2023H493.209V43.8922H490.899V66.9933H493.209V78.5439H495.519V92.4046H500.14ZM497.83 194.05V191.739H490.899V189.429H486.279V157.088H483.969V140.917H481.659V138.607H477.039V136.297H467.798V133.987H463.178V136.297H460.868V138.607H458.558V143.227H456.248V145.537H447.007V140.917H444.697V138.607H442.387V136.297H440.077V124.746H442.387V120.126H447.007V117.816H453.937V120.126H456.248V117.816H460.868V115.506H463.178V113.196H467.798V110.885H470.108V108.575H474.728V106.265H477.039V101.645H474.728V87.7843H472.418V73.9237H470.108V60.063H467.798V46.2023H465.488V32.3416H463.178V27.7214H460.868V2.31011H463.178V0H470.108V2.31011H472.418V4.62023H479.349V6.93034H493.209V9.24046H495.519V20.791H497.83V25.4113H500.14V27.7214H502.45V30.0315H504.76V32.3416H509.38V34.6517H514V36.9618H520.931V39.2719H527.861V41.5821H534.791V43.8922H539.412V46.2023H546.342V48.5124H550.962V50.8225H560.203V53.1326H569.443V69.3034H567.133V71.6135H564.823V73.9237H560.203V78.5439H557.893V80.854H550.962V83.1641H546.342V85.4742H544.032V87.7843H539.412V90.0945H537.102V92.4046H532.481V94.7147H530.171V97.0248H525.551V99.3349H523.241V101.645H520.931V103.955H516.31V106.265H514V108.575H511.69V110.885H507.07V113.196H502.45V115.506H500.14V122.436H502.45V124.746H504.76V127.056H509.38V129.366H516.31V131.677H520.931V133.987H527.861V136.297H532.481V138.607H539.412V140.917H546.342V143.227H550.962V145.537H555.582V147.847H562.513V150.157H567.133V152.468H571.753V154.778H583.304V157.088H585.614V159.398H590.234V161.708H594.854V164.018H601.785V166.328H606.405V168.638H608.715V159.398H611.025V152.468H613.335V145.537H615.645V150.157H617.956V152.468H620.266V164.018H622.576V170.948H624.886V175.569H627.196V187.119H629.506V194.05H620.266V191.739H613.335V189.429H601.785V187.119H594.854V184.809H587.924V182.499H580.994V180.189H576.373V177.879H571.753V175.569H564.823V173.259H560.203V170.948H550.962V168.638H541.722V166.328H539.412V164.018H532.481V161.708H525.551V159.398H518.621V157.088H514V154.778H509.38V152.468H507.07V168.638H509.38V173.259H511.69V177.879H514V180.189H516.31V182.499H518.621V187.119H516.31V189.429H511.69V191.739H507.07V194.05H497.83Z" fill="#F4F6FA" fill-opacity="0.04"/>
<path d="M515.444 180.189V175.569H517.754V180.189H515.444ZM515.444 166.328V164.018H517.754V166.328H515.444ZM524.685 161.708V159.398H526.995V161.708H524.685ZM529.305 152.467V150.157H531.615V152.467H529.305ZM513.134 152.467V147.847H515.444V152.467H513.134ZM526.995 147.847V145.537H529.305V147.847H526.995ZM390.698 140.917V138.607H395.318V136.297H402.249V133.987H406.869V131.676H413.799V129.366H418.419V127.056H425.35V124.746H429.97V122.436H436.9V120.126H441.521V117.816H439.21V115.506H434.59V113.196H429.97V110.885H427.66V108.575H423.04V106.265H420.73V103.955H416.109V101.645H409.179V99.3349H402.249V101.645H399.939V103.955H397.628V108.575H395.318V113.196H393.008V120.126H390.698V124.746H388.388V129.366H386.078V133.987H383.768V140.917H390.698ZM379.147 205.6V203.29H374.527V200.98H372.217V198.67H369.907V196.36H367.597V194.05H365.287V191.739H362.977V189.429H360.667V184.809H358.356V177.879H351.426V180.189H346.806V182.499H342.186V180.189H337.565V177.879H335.255V170.948H337.565V168.638H339.876V166.328H342.186V161.708H346.806V159.398H351.426V157.088H353.736V152.467H356.046V143.227H358.356V136.297H360.667V129.366H362.977V122.436H365.287V117.816H367.597V110.885H369.907V103.955H372.217V97.0248H374.527V92.4045H376.837V87.7843H379.147V85.4742H374.527V83.1641H369.907V85.4742H360.667V83.1641H358.356V73.9236H360.667V69.3034H362.977V64.6832H365.287V62.3731H367.597V60.0629H369.907V64.6832H372.217V66.9933H374.527V64.6832H379.147V66.9933H383.768V69.3034H388.388V66.9933H390.698V62.3731H393.008V57.7528H395.318V55.4427H402.249V53.1326H409.179V55.4427H411.489V60.0629H413.799V62.3731H416.109V69.3034H413.799V71.6135H409.179V73.9236H406.869V80.854H411.489V83.1641H416.109V85.4742H420.73V87.7843H425.35V90.0944H429.97V92.4045H434.59V94.7147H439.21V97.0248H443.831V99.3349H448.451V101.645H453.071V103.955H457.691V106.265H462.312V108.575H471.552V106.265H476.172V103.955H483.103V101.645H487.723V99.3349H494.653V97.0248H499.273V94.7147H506.204V92.4045H510.824V90.0944H517.754V87.7843H522.375V85.4742H524.685V83.1641H533.925V87.7843H540.855V92.4045H543.166V97.0248H540.855V101.645H538.545V103.955H536.235V106.265H524.685V103.955H515.444V106.265H510.824V108.575H506.204V110.885H499.273V113.196H494.653V115.506H490.033V117.816H485.413V120.126H480.793V122.436H476.172V124.746H471.552V127.056H466.932V129.366H462.312V131.676H457.691V133.987H453.071V136.297H446.141V138.607H439.21V140.917H432.28V143.227H425.35V145.537H418.419V147.847H411.489V150.157H404.559V152.467H402.249V154.778H397.628V157.088H393.008V159.398H388.388V161.708H383.768V164.018H381.458V166.328H379.147V173.259H381.458V177.879H383.768V180.189H395.318V177.879H399.939V175.569H409.179V173.259H416.109V170.948H420.73V168.638H425.35V166.328H429.97V164.018H432.28V161.708H436.9V159.398H439.21V157.088H443.831V154.778H448.451V152.467H453.071V150.157H457.691V147.847H462.312V145.537H466.932V143.227H471.552V140.917H476.172V138.607H480.793V136.297H485.413V133.987H490.033V131.676H492.343V129.366H499.273V127.056H501.584V124.746H503.894V122.436H506.204V120.126H508.514V117.816H513.134V115.506H524.685V117.816H526.995V120.126H529.305V122.436H531.615V136.297H529.305V140.917H526.995V145.537H524.685V150.157H526.995V152.467H524.685V157.088H522.375V166.328H524.685V175.569H522.375V168.638H520.064V157.088H517.754V147.847H515.444V145.537H510.824V143.227H508.514V145.537H506.204V147.847H503.894V150.157H501.584V152.467H494.653V154.778H490.033V157.088H485.413V159.398H483.103V161.708H478.482V164.018H473.862V166.328H469.242V168.638H466.932V170.948H462.312V173.259H457.691V175.569H453.071V177.879H450.761V180.189H448.451V182.499H443.831V184.809H439.21V187.119H434.59V189.429H429.97V191.739H425.35V194.05H420.73V196.36H418.419V198.67H413.799V200.98H409.179V203.29H402.249V205.6H379.147Z" fill="#F4F6FA" fill-opacity="0.04"/>
<path d="M276.636 173.259V170.948H278.946V168.638H281.256V166.328H283.567V164.018H285.877V161.708H288.187V159.398H290.497V157.088H292.807V154.778H295.117V152.468H299.737V150.157H302.047V147.847H304.358V143.227H306.668V140.917H308.978V138.607H311.288V136.297H313.598V133.987H315.908V131.676H318.218V127.056H320.528V124.746H322.838V120.126H325.149V115.506H327.459V110.885H329.769V106.265H332.079V103.955H334.389V99.3349H336.699V90.0944H334.389V87.7843H329.769V85.4742H313.598V87.7843H308.978V90.0944H302.047V92.4045H295.117V94.7147H290.497V97.0248H285.877V99.3349H281.256V101.645H278.946V103.955H276.636V106.265H272.016V108.575H269.706V113.196H267.396V140.917H269.706V164.018H272.016V173.259H276.636ZM253.535 233.322V231.011H248.915V228.701H246.605V224.081H248.915V217.151H251.225V184.809H248.915V164.018H246.605V161.708H248.915V159.398H246.605V152.468H244.295V150.157H246.605V147.847H244.295V145.537H246.605V143.227H244.295V140.917H246.605V138.607H244.295V131.676H241.984V129.366H244.295V127.056H241.984V117.816H239.674V101.645H237.364V97.0248H235.054V87.7843H232.744V80.854H235.054V78.5439H237.364V76.2337H246.605V78.5439H251.225V80.854H253.535V83.1641H255.845V85.4742H258.155V87.7843H260.465V90.0944H267.396V87.7843H269.706V85.4742H272.016V83.1641H276.636V80.854H281.256V78.5439H288.187V76.2337H295.117V73.9236H302.047V71.6135H308.978V69.3034H318.218V66.9933H348.25V69.3034H352.87V71.6135H355.18V76.2337H357.49V78.5439H359.8V99.3349H357.49V106.265H355.18V108.575H352.87V113.196H350.56V115.506H348.25V117.816H345.94V122.436H343.63V127.056H341.319V129.366H339.009V131.676H336.699V133.987H334.389V136.297H332.079V138.607H329.769V143.227H327.459V145.537H325.149V150.157H322.838V152.468H320.528V154.778H318.218V157.088H315.908V159.398H313.598V161.708H311.288V164.018H308.978V166.328H306.668V170.948H304.358V173.259H302.047V175.569H299.737V177.879H297.427V180.189H295.117V182.499H292.807V184.809H288.187V187.119H285.877V189.429H283.567V191.739H281.256V196.36H276.636V198.67H274.326V200.98H272.016V212.53H274.326V214.841H276.636V217.151H278.946V219.461H281.256V226.391H278.946V228.701H272.016V231.011H262.775V233.322H253.535Z" fill="#F4F6FA" fill-opacity="0.04"/>
<path d="M127.923 235.632V233.322H130.233V235.632H127.923ZM125.612 233.322V231.011H127.923V233.322H125.612ZM132.543 228.701V226.391H134.853V228.701H132.543ZM116.372 226.391V224.081H114.062V221.771H118.682V226.391H116.372ZM312.732 247.182V244.872H310.422V242.562H308.111V240.252H303.491V237.942H301.181V235.632H298.871V233.322H296.561V231.011H294.251V228.701H289.631V226.391H287.32V224.081H285.01V221.771H282.7V219.461H280.39V217.151H275.77V214.841H273.46V212.53H271.15V210.22H268.84V207.91H266.529V205.6H261.909V203.29H259.599V200.98H257.289V198.67H254.979V196.36H252.669V194.05H250.359V191.739H245.738V189.429H243.428V187.119H241.118V184.809H238.808V182.499H236.498V180.189H231.878V177.879H229.568V175.569H227.257V173.259H224.947V170.948H222.637V168.638H218.017V166.328H215.707V164.018H213.397V161.708H211.087V159.398H208.777V157.088H201.846V159.398H199.536V161.708H194.916V164.018H192.606V166.328H187.986V168.638H185.675V170.948H181.055V173.259H178.745V175.569H174.125V177.879H171.815V180.189H167.195V182.499H164.884V184.809H160.264V187.119H157.954V189.429H155.644V191.739H151.024V194.05H148.714V196.36H144.093V198.67H141.783V200.98H137.163V214.841H134.853V224.081H132.543V217.151H130.233V219.461H127.923V226.391H125.612V219.461H123.302V237.942H120.992V217.151H114.062V212.53H111.752V203.29H114.062V200.98H116.372V198.67H120.992V196.36H127.923V194.05H130.233V191.739H132.543V189.429H134.853V187.119H137.163V184.809H139.473V182.499H141.783V180.189H146.403V177.879H148.714V175.569H151.024V173.259H153.334V170.948H155.644V168.638H160.264V166.328H162.574V164.018H164.884V161.708H167.195V159.398H171.815V157.088H174.125V154.778H176.435V152.468H178.745V150.157H181.055V147.847H185.675V145.537H187.986V143.227H190.296V140.917H192.606V133.987H190.296V131.676H187.986V129.366H185.675V127.056H183.365V124.746H181.055V122.436H176.435V120.126H174.125V117.816H171.815V115.506H169.505V113.196H167.195V110.885H164.884V108.575H162.574V106.265H160.264V103.955H146.403V101.645H141.783V99.3349H139.473V85.4742H141.783V80.854H144.093V78.5439H146.403V76.2337H151.024V73.9236H153.334V71.6135H164.884V73.9236H169.505V78.5439H171.815V80.854H174.125V83.1641H176.435V85.4742H178.745V87.7843H181.055V90.0944H183.365V92.4045H185.675V94.7147H187.986V97.0248H190.296V99.3349H192.606V101.645H194.916V103.955H197.226V106.265H199.536V108.575H201.846V110.885H204.156V113.196H206.466V115.506H208.777V117.816H211.087V120.126H215.707V122.436H218.017V120.126H220.327V117.816H222.637V115.506H227.257V113.196H229.568V110.885H231.878V108.575H234.188V106.265H238.808V103.955H241.118V101.645H243.428V99.3349H245.738V97.0248H248.049V94.7147H250.359V92.4045H252.669V85.4742H254.979V80.854H271.15V83.1641H275.77V85.4742H278.08V90.0944H280.39V103.955H278.08V108.575H275.77V110.885H271.15V113.196H268.84V115.506H264.219V117.816H261.909V120.126H257.289V122.436H254.979V124.746H252.669V127.056H248.049V129.366H245.738V131.676H241.118V133.987H238.808V136.297H236.498V138.607H234.188V143.227H236.498V145.537H238.808V147.847H241.118V150.157H243.428V152.468H245.738V154.778H248.049V157.088H250.359V161.708H252.669V164.018H254.979V166.328H257.289V168.638H259.599V170.948H261.909V173.259H264.219V175.569H266.529V177.879H268.84V182.499H271.15V184.809H273.46V187.119H275.77V189.429H278.08V191.739H280.39V194.05H282.7V196.36H285.01V198.67H287.32V203.29H289.631V205.6H294.251V207.91H296.561V210.22H298.871V214.841H301.181V217.151H303.491V219.461H305.801V221.771H308.111V224.081H310.422V226.391H312.732V228.701H315.042V231.011H317.352V233.322H319.662V235.632H321.972V237.942H324.282V247.182H312.732Z" fill="#F4F6FA" fill-opacity="0.04"/>
<path d="M180.189 180.189V175.569H182.499V180.189H180.189ZM180.189 166.328V164.018H182.499V166.328H180.189ZM189.429 161.708V159.398H191.739V161.708H189.429ZM194.05 152.467V150.157H196.36V152.467H194.05ZM177.879 152.467V147.847H180.189V152.467H177.879ZM191.739 147.847V145.537H194.05V147.847H191.739ZM55.4427 140.917V138.607H60.063V136.297H66.9933V133.987H71.6135V131.676H78.5439V129.366H83.1641V127.056H90.0945V124.746H94.7147V122.436H101.645V120.126H106.265V117.816H103.955V115.506H99.3349V113.196H94.7147V110.885H92.4046V108.575H87.7843V106.265H85.4742V103.955H80.854V101.645H73.9237V99.3349H66.9933V101.645H64.6832V103.955H62.3731V108.575H60.063V113.196H57.7529V120.126H55.4427V124.746H53.1326V129.366H50.8225V133.987H48.5124V140.917H55.4427ZM43.8922 205.6V203.29H39.2719V200.98H36.9618V198.67H34.6517V196.36H32.3416V194.05H30.0315V191.739H27.7214V189.429H25.4113V184.809H23.1011V177.879H16.1708V180.189H11.5506V182.499H6.93034V180.189H2.31011V177.879H0V170.948H2.31011V168.638H4.62023V166.328H6.93034V161.708H11.5506V159.398H16.1708V157.088H18.4809V152.467H20.791V143.227H23.1011V136.297H25.4113V129.366H27.7214V122.436H30.0315V117.816H32.3416V110.885H34.6517V103.955H36.9618V97.0248H39.2719V92.4045H41.5821V87.7843H43.8922V85.4742H39.2719V83.1641H34.6517V85.4742H25.4113V83.1641H23.1011V73.9236H25.4113V69.3034H27.7214V64.6832H30.0315V62.3731H32.3416V60.0629H34.6517V64.6832H36.9618V66.9933H39.2719V64.6832H43.8922V66.9933H48.5124V69.3034H53.1326V66.9933H55.4427V62.3731H57.7529V57.7528H60.063V55.4427H66.9933V53.1326H73.9237V55.4427H76.2338V60.0629H78.5439V62.3731H80.854V69.3034H78.5439V71.6135H73.9237V73.9236H71.6135V80.854H76.2338V83.1641H80.854V85.4742H85.4742V87.7843H90.0945V90.0944H94.7147V92.4045H99.3349V94.7147H103.955V97.0248H108.575V99.3349H113.196V101.645H117.816V103.955H122.436V106.265H127.056V108.575H136.297V106.265H140.917V103.955H147.847V101.645H152.468V99.3349H159.398V97.0248H164.018V94.7147H170.948V92.4045H175.569V90.0944H182.499V87.7843H187.119V85.4742H189.429V83.1641H198.67V87.7843H205.6V92.4045H207.91V97.0248H205.6V101.645H203.29V103.955H200.98V106.265H189.429V103.955H180.189V106.265H175.569V108.575H170.948V110.885H164.018V113.196H159.398V115.506H154.778V117.816H150.157V120.126H145.537V122.436H140.917V124.746H136.297V127.056H131.677V129.366H127.056V131.676H122.436V133.987H117.816V136.297H110.885V138.607H103.955V140.917H97.0248V143.227H90.0945V145.537H83.1641V147.847H76.2338V150.157H69.3034V152.467H66.9933V154.778H62.3731V157.088H57.7529V159.398H53.1326V161.708H48.5124V164.018H46.2023V166.328H43.8922V173.259H46.2023V177.879H48.5124V180.189H60.063V177.879H64.6832V175.569H73.9237V173.259H80.854V170.948H85.4742V168.638H90.0945V166.328H94.7147V164.018H97.0248V161.708H101.645V159.398H103.955V157.088H108.575V154.778H113.196V152.467H117.816V150.157H122.436V147.847H127.056V145.537H131.677V143.227H136.297V140.917H140.917V138.607H145.537V136.297H150.157V133.987H154.778V131.676H157.088V129.366H164.018V127.056H166.328V124.746H168.638V122.436H170.948V120.126H173.259V117.816H177.879V115.506H189.429V117.816H191.739V120.126H194.05V122.436H196.36V136.297H194.05V140.917H191.739V145.537H189.429V150.157H191.739V152.467H189.429V157.088H187.119V166.328H189.429V175.569H187.119V168.638H184.809V157.088H182.499V147.847H180.189V145.537H175.569V143.227H173.259V145.537H170.948V147.847H168.638V150.157H166.328V152.467H159.398V154.778H154.778V157.088H150.157V159.398H147.847V161.708H143.227V164.018H138.607V166.328H133.987V168.638H131.677V170.948H127.056V173.259H122.436V175.569H117.816V177.879H115.506V180.189H113.196V182.499H108.575V184.809H103.955V187.119H99.3349V189.429H94.7147V191.739H90.0945V194.05H85.4742V196.36H83.1641V198.67H78.5439V200.98H73.9237V203.29H66.9933V205.6H43.8922Z" fill="#F4F6FA" fill-opacity="0.04"/>
</svg>
