<svg width="16" height="19" viewBox="0 0 16 19" fill="none" xmlns="http://www.w3.org/2000/svg">
<g clip-path="url(#clip0_341_4762)">
<path d="M8.00289 5.58003C5.83471 5.58003 4.08585 7.32889 4.08585 9.49708C4.08585 11.6653 5.83471 13.4141 8.00289 13.4141C10.1711 13.4141 11.9199 11.6653 11.9199 9.49708C11.9199 7.32889 10.1711 5.58003 8.00289 5.58003ZM8.00289 12.0437C6.60176 12.0437 5.4563 10.9016 5.4563 9.49708C5.4563 8.09253 6.59835 6.95048 8.00289 6.95048C9.40744 6.95048 10.5495 8.09253 10.5495 9.49708C10.5495 10.9016 9.40403 12.0437 8.00289 12.0437ZM12.9938 5.4198C12.9938 5.92776 12.5847 6.33344 12.0802 6.33344C11.5722 6.33344 11.1665 5.92435 11.1665 5.4198C11.1665 4.91526 11.5756 4.50617 12.0802 4.50617C12.5847 4.50617 12.9938 4.91526 12.9938 5.4198ZM15.5881 6.34707C15.5302 5.12321 15.2506 4.03912 14.354 3.14594C13.4608 2.25276 12.3768 1.97321 11.1529 1.91185C9.89153 1.84026 6.11085 1.84026 4.84949 1.91185C3.62903 1.9698 2.54494 2.24935 1.64835 3.14253C0.751758 4.03571 0.475622 5.1198 0.414258 6.34367C0.342667 7.60503 0.342667 11.3857 0.414258 12.6471C0.472213 13.8709 0.751758 14.955 1.64835 15.8482C2.54494 16.7414 3.62562 17.0209 4.84949 17.0823C6.11085 17.1539 9.89153 17.1539 11.1529 17.0823C12.3768 17.0243 13.4608 16.7448 14.354 15.8482C15.2472 14.955 15.5268 13.8709 15.5881 12.6471C15.6597 11.3857 15.6597 7.60844 15.5881 6.34707ZM13.9586 14.0005C13.6927 14.6687 13.1779 15.1834 12.5063 15.4528C11.5006 15.8516 9.11426 15.7596 8.00289 15.7596C6.89153 15.7596 4.50176 15.8482 3.49949 15.4528C2.8313 15.1868 2.31653 14.6721 2.04721 14.0005C1.64835 12.9948 1.74039 10.6084 1.74039 9.49708C1.74039 8.38571 1.65176 5.99594 2.04721 4.99367C2.31312 4.32548 2.82789 3.81071 3.49949 3.54139C4.50517 3.14253 6.89153 3.23457 8.00289 3.23457C9.11426 3.23457 11.504 3.14594 12.5063 3.54139C13.1745 3.8073 13.6893 4.32207 13.9586 4.99367C14.3574 5.99935 14.2654 8.38571 14.2654 9.49708C14.2654 10.6084 14.3574 12.9982 13.9586 14.0005Z" fill="#D8D8D8" fill-opacity="0.8"/>
</g>
<defs>
<clipPath id="clip0_341_4762">
<rect width="15.2727" height="17.4545" fill="white" transform="translate(0.363586 0.772705)"/>
</clipPath>
</defs>
</svg>
