<svg width="16" height="19" viewBox="0 0 16 19" fill="none" xmlns="http://www.w3.org/2000/svg">
<g clip-path="url(#clip0_341_4759)">
<path d="M3.78222 16.0461H0.615859V5.84948H3.78222V16.0461ZM2.19734 4.45857C1.18484 4.45857 0.363586 3.61993 0.363586 2.60743C0.363586 2.12109 0.556785 1.65467 0.900679 1.31077C1.24457 0.96688 1.711 0.773682 2.19734 0.773682C2.68368 0.773682 3.1501 0.96688 3.49399 1.31077C3.83789 1.65467 4.03109 2.12109 4.03109 2.60743C4.03109 3.61993 3.2095 4.45857 2.19734 4.45857ZM15.6329 16.0461H12.4734V11.0824C12.4734 9.89948 12.4495 8.38243 10.8271 8.38243C9.18086 8.38243 8.92859 9.66766 8.92859 10.9972V16.0461H5.76563V5.84948H8.80245V7.24039H8.84677C9.2695 6.43925 10.3021 5.59379 11.8427 5.59379C15.0472 5.59379 15.6363 7.70402 15.6363 10.4449V16.0461H15.6329Z" fill="#D8D8D8" fill-opacity="0.8"/>
</g>
<defs>
<clipPath id="clip0_341_4759">
<rect width="15.2727" height="17.4545" fill="white" transform="translate(0.363586 0.772705)"/>
</clipPath>
</defs>
</svg>
