<svg width="104" height="33" viewBox="0 0 104 33" fill="none" xmlns="http://www.w3.org/2000/svg">
<path d="M75.451 25.029C74.8732 25.029 74.3346 24.7972 73.9494 24.412L70.95 21.4125C70.5255 20.9881 70.3329 20.4496 70.3329 19.8754V10.7628C70.3329 10.185 70.5255 9.64647 70.95 9.22562L73.9494 6.22615C74.3346 5.84096 74.8732 5.60913 75.451 5.60913H83.679C84.2568 5.60913 84.7953 5.84096 85.1805 6.22615L88.18 9.22562C88.6044 9.65004 88.7935 10.1886 88.7935 10.7628V19.8754C88.7935 20.4531 88.6009 20.9917 88.18 21.4125L85.1805 24.412C84.7953 24.7972 84.2568 25.029 83.679 25.029H75.451ZM84.4102 21.5695C84.9095 21.5695 85.2947 21.1843 85.2947 20.7242V9.91753C85.2947 9.45745 84.9095 9.07226 84.4102 9.07226H74.7198C74.2205 9.07226 73.8353 9.45745 73.8353 9.91753V20.7242C73.8353 21.1843 74.2205 21.5695 74.7198 21.5695H84.4102Z" fill="#F4F6FA"/>
<path d="M3.90538 21.5913C3.68069 21.5913 3.49879 21.4094 3.49879 21.1847V7.94567H3.78768L5.43187 9.0727H13.3817V5.61314H4.3833C3.88398 5.61314 3.49879 5.22795 3.49879 4.76787V0.0172119H0V20.8602C0 21.1669 0.153362 21.438 0.345956 21.6306L3.34543 24.63C3.61292 24.8975 3.95888 25.0545 4.3084 25.0545H15.5324V21.5949H3.90538V21.5913Z" fill="#F4F6FA"/>
<path d="M23.0397 5.30258V2.14618H19.5409V25.0506H23.0397V9.07244H20.2863V8.51605L23.0397 5.30258Z" fill="#F4F6FA"/>
<path d="M43.2264 9.24735L40.2269 6.24787C39.8417 5.86269 39.6134 5.63086 39.0357 5.63086H26.4992V9.09042H39.4565C39.9558 9.09042 40.341 9.47561 40.341 9.93569V12.8959H29.9588C28.0471 12.8959 26.4992 14.4438 26.4992 16.3555V20.7388C26.4992 21.0848 26.6347 21.4307 26.9022 21.7018L29.9017 24.7012C30.0943 24.8938 30.3618 25.0472 30.6721 25.0472H36.614L39.7882 22.8716H40.3446V25.0472H43.8434V10.7845C43.8434 10.2068 43.6508 9.6682 43.2299 9.24735H43.2264ZM33.5182 21.5912H30.3654C30.1407 21.5912 29.9588 21.4093 29.9588 21.1846V16.3591H40.341V21.5912H33.5146H33.5182Z" fill="#F4F6FA"/>
<path d="M65.3185 9.15647L62.319 6.15699C61.9339 5.7718 61.3953 5.53998 60.8175 5.53998H51.5516C50.9738 5.53998 50.4353 5.7718 50.0501 6.15699L47.0506 9.15647C46.6262 9.58089 46.4336 10.1194 46.4336 10.6937V20.812C46.4336 21.1187 46.587 21.3898 46.7796 21.5824L49.779 24.646C49.9538 24.8208 50.1642 24.992 50.4638 25.0063H58.7168V21.5467H50.6885C50.2712 21.5467 49.9324 21.2079 49.9324 20.7906V9.85195C49.9324 9.39186 50.3176 9.00667 50.8169 9.00667H61.5451C62.0444 9.00667 62.4296 9.39186 62.4296 9.85195V28.3481C62.4296 28.8082 62.0444 29.1934 61.5451 29.1934H48.9337V32.653H60.8175C61.3953 32.653 61.9339 32.4211 62.319 32.0395L65.3185 29.04C65.7429 28.6156 65.932 28.0771 65.932 27.5028V10.6972C65.932 10.1194 65.7394 9.58089 65.3185 9.16004V9.15647Z" fill="#F4F6FA"/>
<path d="M98.8762 24.8792C96.2212 24.8792 94.121 22.8384 94.121 20.0844C94.121 17.3303 96.2212 15.2896 98.8762 15.2896C101.531 15.2896 103.612 17.3303 103.612 20.0844C103.612 22.8384 101.531 24.8792 98.8762 24.8792ZM98.8762 23.8885C101.076 23.8885 102.423 22.3827 102.423 20.0646C102.423 17.7662 101.076 16.2604 98.8762 16.2604C96.677 16.2604 95.3098 17.7662 95.3098 20.0646C95.3098 22.3827 96.677 23.8885 98.8762 23.8885ZM96.7958 22.6403V17.4888H99.2329C100.362 17.4888 101.056 18.004 101.056 18.9748C101.056 19.6683 100.659 20.1042 100.025 20.2429V20.2627C101.313 20.4806 100.838 22.4818 101.135 22.5611V22.6403H99.7877C99.5301 22.4224 100.006 20.8373 98.8961 20.8373H98.0837V22.6403H96.7958ZM98.0837 18.5389V19.7872H98.9753C99.4905 19.7872 99.7678 19.589 99.7678 19.173C99.7678 18.7371 99.4905 18.5389 98.9753 18.5389H98.0837Z" fill="#F4F6FA"/>
</svg>
