<svg width="22" height="19" viewBox="0 0 22 19" fill="none" xmlns="http://www.w3.org/2000/svg">
<g clip-path="url(#clip0_341_4756)">
<path d="M6.24414 3.30493C2.84572 3.30493 0.0907288 6.07894 0.0907288 9.50055C0.0907288 12.9221 2.84592 15.6962 6.24414 15.6962C9.64235 15.6962 12.3975 12.9224 12.3975 9.50055C12.3975 6.07874 9.6427 3.30493 6.24414 3.30493ZM16.0708 3.66786C14.3716 3.66786 12.9943 6.27987 12.9943 9.50065C12.9943 12.7214 14.3718 15.3336 16.071 15.3336C17.7703 15.3336 19.1478 12.7216 19.1478 9.50065H19.1475C19.1475 6.27895 17.7703 3.66786 16.0709 3.66786H16.0708ZM20.8267 4.2754C20.2293 4.2754 19.7449 6.61499 19.7449 9.50065C19.7449 12.3863 20.2289 14.7259 20.8267 14.7259C21.4245 14.7259 21.9089 12.3857 21.9089 9.50055C21.9089 6.61478 21.4243 4.2754 20.8268 4.2754H20.8267Z" fill="#D8D8D8" fill-opacity="0.8"/>
</g>
<defs>
<clipPath id="clip0_341_4756">
<rect width="21.8182" height="17.4545" fill="white" transform="translate(0.0909119 0.772705)"/>
</clipPath>
</defs>
</svg>
